
<svg xmlns="http://www.w3.org/2000/svg" width="60" height="58" fill="none" viewBox="0 0 60 58">
    <path fill="#DCE9F4" d="M1.766 6.81c0-2.786 2.257-5.044 5.042-5.044h46.386c2.785 0 5.042 2.258 5.042 5.043v44.383c0 2.785-2.257 5.043-5.042 5.043H6.808c-2.785 0-5.042-2.258-5.042-5.043V6.809z"/>
    <path fill="#146EB4" fill-rule="evenodd" d="M0 6.809C0 3.049 3.047 0 6.807 0h46.386C56.953 0 60 3.048 60 6.809V51.19C60 54.951 56.953 58 53.193 58H6.807C3.047 58 0 54.952 0 51.191V6.81zM6.807 3.53c-1.81 0-3.278 1.468-3.278 3.279V51.19c0 1.81 1.468 3.279 3.278 3.279h46.386c1.81 0 3.278-1.468 3.278-3.279V6.81c0-1.81-1.468-3.279-3.278-3.279H6.807z" clip-rule="evenodd"/>
    <path fill="#146EB4" fill-rule="evenodd" d="M10.086 13.87c0-.975.79-1.765 1.765-1.765H39.19c.974 0 1.764.79 1.764 1.765 0 .975-.79 1.765-1.764 1.765H11.85c-.974 0-1.764-.79-1.764-1.765zM10.086 25.974c0-.975.79-1.765 1.765-1.765h36.414c.975 0 1.765.79 1.765 1.765 0 .975-.79 1.765-1.765 1.765H11.851c-.975 0-1.765-.79-1.765-1.765zM10.086 38.079c0-.975.79-1.766 1.765-1.766H39.19c.974 0 1.764.79 1.764 1.766 0 .975-.79 1.765-1.764 1.765H11.85c-.974 0-1.764-.79-1.764-1.765z" clip-rule="evenodd"/>
</svg>
