
<svg xmlns="http://www.w3.org/2000/svg" width="96" height="26" fill="none" viewBox="0 0 96 26">
    <path fill="#B3B3B3" d="M78.177 7.817c-1.112-.486-2.312-.723-3.52-.695-1.209.029-2.397.322-3.487.86-1.01.512-1.906 1.234-2.63 2.122-.723.888-1.26 1.921-1.575 3.034-.41 1.247-.58 2.564-.5 3.878-.004.692.056 1.382.18 2.062.3 1.703 1.101 3.27 2.293 4.488 1.193 1.22 2.72 2.032 4.374 2.33 1.074.138 2.16.138 3.234 0 1.11-.208 2.173-.627 3.133-1.238 1.001-.681 2.002-1.692 2.002-2.001 0-.31-.33-.63-.47-.63-.215.075-.418.183-.6.32-.92.623-2.005.933-3.104.887-.73.052-1.46-.063-2.14-.338-.681-.275-1.294-.701-1.795-1.25-.386-.368-.704-.805-.94-1.289-.58-1.188-.888-2.497-.902-3.826v-.619h10.212v-.36c0-.38-.02-.758-.06-1.135-.32-3.352-1.572-5.569-3.705-6.6zm-5.145 6.476H71.73v-.288c0-.166.05-.578.1-.929.43-2.867 1.472-4.589 2.764-4.589 1.291 0 1.932 1.691 2.082 4.796l.05.876h-1.201l-2.493.134zM9.15 2.423h2.173c2.492 0 2.903.052 3.784.506 1.281.64 2.212 1.928 3.003 4.125.33.907.33.907 1.072.68l.49-.154-.05-3.28c0-1.804-.06-3.413-.09-3.568V.443H.26L.03.495V1.66l.721.083c.352-.002.699.077 1.017.23.319.154.6.378.825.657.75 1.134.881 2.67.881 9.972 0 7.776-.16 9.674-.88 10.653-.18.249-.41.453-.675.598-.265.144-.558.226-.858.238-1.1.206-1.06.185-1.06.773 0 .32 0 .505.08.526.08.02 12.303 0 12.433 0 .13 0 .16-1.031 0-1.083-.3-.078-.604-.14-.91-.185-.365-.044-.724-.127-1.072-.248-.801-.35-1.241-1.34-1.412-3.094-.12-1.279-.21-3.65-.21-5.393v-1.63h.74c.917-.03 1.833.067 2.724.289.43.27.796.636 1.072 1.069.277.433.458.924.53 1.437l.16.67h1.121V8.745h-1.121l-.17.67c-.066.512-.245 1-.523 1.43-.277.428-.647.786-1.08 1.046-.403.178-.841.259-1.28.237-.491 0-1.182.062-1.532.062h-.64v-2.073c0-2.114.11-6.621.18-7.322l.06-.372zM34.06 14.974c-.361-3.156-1.663-5.466-3.805-6.765-1.316-.715-2.775-1.105-4.262-1.14-1.488-.033-2.962.29-4.307.944-1.93 1.044-3.384 2.825-4.055 4.96-.695 2.385-.695 4.928 0 7.312.369 1.303 1.059 2.486 2.002 3.434 1.166 1.143 2.658 1.866 4.255 2.063 1.033.088 2.07.088 3.103 0 .29-.052.801-.165 1.132-.258 1.486-.446 2.82-1.315 3.848-2.509 1.027-1.193 1.706-2.662 1.958-4.235.188-1.26.232-2.537.13-3.806zm-7.68 9.447c-1.891.577-3.243-1.269-3.764-5.157-.17-2.031-.17-4.074 0-6.105.37-3.094 1.312-4.703 2.784-4.703.292-.016.584.04.852.161.268.122.504.307.69.54 1.24 1.29 1.821 3.734 1.811 7.58 0 3.095-.3 5.002-1 6.312-.286.61-.772 1.096-1.372 1.372z"/>
    <path fill="#B3B3B3" d="M46.501 7.044c-.65-.032-1.298.106-1.882.402-1.24.623-2.242 1.659-2.843 2.939l-.25.464v-.815c0-.454.05-1.289.07-1.866V7.136h-.17c-.22 0-7.058 1.403-7.259 1.496-.2.093-.16.113-.16.453s0 .403.16.423l.701.145c.6.123.781.216 1.001.557.46.629.55 1.732.55 6.414.086 2.115-.001 4.233-.26 6.332-.062.316-.218.605-.445.826-.228.221-.516.365-.826.412l-.63.134h-.24v.485c0 .35 0 .515.07.556.07.042 2.382.052 5.195 0h5.106v-.546c.037-.184.037-.373 0-.557-.607-.028-1.21-.11-1.802-.247-.57-.258-.851-.784-1.001-1.867-.14-1.269-.23-4.424-.19-7.013.04-2.588 0-2.62.2-2.795.608-.495 1.367-.755 2.142-.732.736.012 1.459.2 2.112.547.23.128.476.225.731.288.09 0 1.762-4.6 1.762-4.816 0-.216-.89-.587-1.842-.587z"/>
    <path fill="#B3B3B3" d="M59.667 7.425c-.515-.096-1.04-.124-1.562-.082-1.001.004-1.99.225-2.903.65-.185.096-.376.182-.57.257V4.125c.09-1.373.09-2.752 0-4.125-.231 0-7.279 1.382-7.359 1.444-.07.132-.09.286-.06.433 0 .412 0 .382.831.577.235.05.461.138.67.258.37.346.615.812.692 1.32.13.516.15.877.21 4.363.06 3.485.05 7.219-.05 13.912v2.774l.51.124c.731.165 2.823.526 3.504.598 1.363.109 2.732.109 4.095 0 1.504-.183 2.932-.782 4.132-1.734 1.2-.951 2.128-2.22 2.685-3.67.337-.936.569-1.908.691-2.898.11-1.335.067-2.678-.13-4.002-.761-3.269-2.723-5.507-5.386-6.074zm-4.876 16.78c-.09-.238-.19-8.57-.15-11.902V9.704l.46-.144c.353-.097.717-.142 1.082-.134.402-.04.806.053 1.151.268 1.192.608 2.003 2.063 2.383 4.383.128 1.372.128 2.753 0 4.125-.31 2.486-1.101 4.486-2.152 5.456-.355.362-.81.603-1.302.69-.374.067-.757.067-1.131 0-.26.042-.34-.03-.34-.144zM95.565 17.49c-.58-1.196-1.652-2.01-3.885-2.98-1.223-.405-2.349-1.073-3.303-1.96-.207-.211-.365-.47-.46-.754-.096-.284-.127-.587-.09-.885-.002-.299.054-.594.164-.87.11-.276.272-.527.476-.739.281-.3.637-.517 1.028-.626.391-.109.804-.106 1.194.007 1.492.33 2.443 1.393 3.274 3.64.29.795.33.826.85.62l.341-.124v-.929c0-.505 0-1.567-.06-2.371V8.075l-.25-.114c-1.818-.652-3.744-.925-5.666-.804-1.665.064-3.244.77-4.425 1.98-.524.535-.928 1.181-1.184 1.894-.256.712-.357 1.474-.298 2.231.014 1.157.458 2.265 1.241 3.094.884.87 1.959 1.508 3.134 1.856 2.873 1.155 3.624 1.836 3.624 3.26.015.555-.148 1.1-.465 1.55-.317.449-.77.778-1.287.935-.659.156-1.343.156-2.002 0-1.432-.382-2.523-1.66-3.444-4.012l-.24-.609h-.28c-.162.003-.322.038-.471.104l-.19.092v1.032c0 .567 0 1.763.06 2.65v1.63l.32.134c1.245.425 2.53.716 3.834.866h1.862c.805.057 1.614-.023 2.393-.237.989-.195 1.91-.654 2.673-1.33.763-.677 1.339-1.549 1.672-2.527.193-.538.281-1.109.26-1.681.103-.881-.035-1.775-.4-2.579z"/>
</svg>
