
<svg xmlns="http://www.w3.org/2000/svg" width="90" height="32" fill="none" viewBox="0 0 90 32">
    <path fill="#B3B3B3" d="M43.707 0c.91-.004 1.8.262 2.56.765.758.503 1.35 1.22 1.701 2.06.352.84.446 1.765.272 2.658-.174.894-.61 1.716-1.25 2.362-.642.646-1.46 1.087-2.352 1.267-.892.18-1.817.092-2.659-.254-.841-.347-1.562-.935-2.069-1.69-.507-.756-.78-1.646-.781-2.556-.003-.604.114-1.203.343-1.761.228-.56.565-1.067.99-1.496.425-.428.93-.768 1.488-1C42.506.121 43.104 0 43.707 0zM11.34 31.73H.03v-3.66h.811c.551 0 .742-.31.742-.822V15.91c0-.511-.19-.812-.742-.812H0v-3.75h10.198v3.179c.665-1.098 1.601-2.007 2.72-2.637 1.117-.63 2.378-.962 3.662-.962 4.007 0 5.359 1.604 5.82 4.01.642-1.209 1.6-2.22 2.771-2.926 1.172-.706 2.513-1.081 3.88-1.084 5.09 0 5.78 2.446 5.78 6.075v10.256c0 .5.231.812.862.812h.642v3.669h-11.07v-3.67h.29c.521 0 .742-.31.742-.811v-9.324c0-1.684-.571-2.215-1.743-2.215-1.553 0-2.064 1.283-2.064 3.258v8.24c0 .542.23.853.751.853h.451v3.669h-10.83v-3.67h.311c.501 0 .732-.31.732-.811v-9.324c0-1.684-.571-2.215-1.753-2.215-1.543 0-2.004 1.283-2.004 3.258v8.24c0 .542.19.853.731.853h.471l-.01 3.659zM39.5 15.91c0-.511-.191-.812-.742-.812h-.852v-3.75h10.118v15.9c0 .542.19.852.742.852h.75v3.67h-11.61v-3.7h.832c.55 0 .741-.31.741-.812l.02-11.348zM62.581 31.73h-11.3v-3.66h.832c.55 0 .741-.31.741-.821V15.91c0-.511-.19-.812-.741-.812h-.832v-3.75H61.38v3.209c.743-1.121 1.753-2.04 2.938-2.673 1.186-.634 2.51-.962 3.854-.956 4.709 0 5.73 2.446 5.73 6.075v10.256c0 .5.18.812.812.812h.681v3.669h-11.26v-3.67h.461c.5 0 .741-.31.741-.811v-9.324c0-1.684-.61-2.215-1.743-2.215-1.132 0-2.214.892-2.214 2.867v8.631c-.014.1-.008.2.017.297.025.096.07.187.13.266.06.08.137.146.223.196.087.05.182.081.281.094h.551v3.659zM75.184 11.349l3.005-.11.36-4.642h7.624v4.752h3.606v3.82h-3.606V24.4c0 2.416.47 3.198 3.116 3.198h.71v4.13c-1.663.18-3.335.27-5.008.271-4.819 0-7.253-1.504-7.253-5.504V15.168h-2.444l-.11-3.82z"/>
</svg>
