
<svg xmlns="http://www.w3.org/2000/svg" width="184" height="40" fill="none" viewBox="0 0 184 40">
    <path fill="#999" d="M90.066.814C66.024 14.071 41.982-8.423 0 3.76v34.83c41.982-12.182 66.024 10.312 90.066-2.915V.815zM184 .814H90.07v34.74H184V.813z"/>
    <path fill="#fff" d="M10.706 26.253H7.18V12.75h3.373v1.657c.337-.614.859-1.104 1.595-1.473.736-.368 1.472-.552 2.238-.552 1.902 0 3.19.736 3.864 2.24.95-1.504 2.33-2.24 4.14-2.24 1.319 0 2.453.43 3.373 1.289.92.859 1.38 2.148 1.38 3.836v8.746H23.71v-8.01c0-.767-.184-1.38-.583-1.841-.368-.46-.95-.706-1.748-.706-.736 0-1.319.246-1.748.767-.43.522-.675 1.136-.675 1.903v7.887H15.46v-8.01c0-.767-.185-1.38-.583-1.841-.399-.46-.982-.706-1.718-.706-.735 0-1.349.246-1.778.767-.46.491-.675 1.136-.675 1.903M31.642 14.375c1.288-1.35 2.944-2.025 4.907-2.025 1.962 0 3.588.675 4.906 2.025 1.288 1.35 1.963 3.069 1.963 5.125s-.644 3.774-1.963 5.125c-1.318 1.35-2.944 2.025-4.906 2.025-1.963 0-3.588-.675-4.907-2.025-1.288-1.35-1.962-3.069-1.962-5.125.03-2.056.674-3.775 1.962-5.125zm2.576 7.948c.644.675 1.441 1.013 2.361 1.013.92 0 1.718-.338 2.362-1.013.644-.675.981-1.626.981-2.823s-.337-2.148-.981-2.823c-.644-.675-1.442-1.013-2.361-1.013-.92 0-1.718.338-2.362 1.013-.644.675-.981 1.626-.981 2.823 0 1.227.307 2.148.981 2.823zM49.73 18.489v7.764h-3.527V12.75h3.435v1.657c.368-.644.889-1.166 1.594-1.504.675-.337 1.411-.521 2.178-.521 1.533 0 2.729.49 3.526 1.504.797.982 1.196 2.27 1.196 3.866v8.5h-3.557v-7.886c0-.798-.215-1.442-.583-1.933-.398-.491-1.012-.737-1.809-.737-.736 0-1.35.276-1.779.798-.46.522-.674 1.197-.674 1.995zM70.478 21.493l2.944.89c-.368 1.258-1.042 2.27-2.085 3.069-1.043.798-2.33 1.197-3.864 1.197-1.87 0-3.465-.645-4.784-1.964-1.319-1.32-1.962-3.07-1.962-5.248 0-2.087.644-3.805 1.9-5.125 1.289-1.32 2.791-1.995 4.509-1.995 2.024 0 3.588.614 4.753 1.872 1.135 1.259 1.717 2.946 1.717 5.125v.921l-.03.184h-9.353c.03.89.368 1.627 1.011 2.21.644.583 1.411.89 2.3.89 1.472.03 2.484-.676 2.944-2.026zm-6.194-3.529h5.857c-.03-.736-.307-1.381-.767-1.903-.49-.521-1.196-.767-2.146-.767-.859 0-1.534.276-2.085.829-.522.552-.798 1.166-.86 1.841zM80.737 31.59h-3.772l3.097-7.028-5.55-11.815h3.956l3.465 7.918 3.22-7.918h3.772M98.061 15.76c-.95 0-1.717.338-2.361 1.013-.644.675-.95 1.596-.95 2.762s.337 2.086.98 2.792c.644.675 1.442 1.044 2.392 1.044.829 0 1.503-.215 1.994-.675.49-.46.828-.983 1.012-1.596l3.097 1.074c-.307 1.258-1.012 2.301-2.085 3.222-1.074.89-2.423 1.35-4.048 1.35-1.963 0-3.588-.675-4.907-2.056-1.318-1.35-1.962-3.069-1.962-5.125s.644-3.774 1.962-5.125c1.288-1.35 2.913-2.025 4.815-2.025 1.656 0 3.036.46 4.078 1.32 1.074.89 1.748 1.964 2.055 3.222l-3.159 1.105c-.429-1.535-1.41-2.302-2.913-2.302zM107.638 14.407c1.288-1.35 2.944-2.025 4.907-2.025s3.588.675 4.906 2.025c1.319 1.35 1.963 3.069 1.963 5.125s-.644 3.775-1.963 5.125c-1.287 1.35-2.943 2.025-4.906 2.025-1.963 0-3.588-.675-4.907-2.025-1.288-1.35-1.962-3.069-1.962-5.125.03-2.056.674-3.774 1.962-5.125zm2.546 7.98c.644.674 1.441 1.012 2.361 1.012.92 0 1.717-.338 2.361-1.013.644-.675.982-1.626.982-2.823s-.338-2.148-.982-2.823c-.644-.676-1.441-1.013-2.361-1.013-.92 0-1.717.337-2.361 1.012-.644.676-.982 1.627-.982 2.824.031 1.197.338 2.148.982 2.823zM125.734 18.522v7.764h-3.527V12.783h3.435v1.657c.368-.644.889-1.166 1.594-1.503.675-.338 1.411-.522 2.178-.522 1.533 0 2.729.491 3.526 1.504.797 1.012 1.196 2.27 1.196 3.866v8.501h-3.527v-7.887c0-.798-.214-1.442-.582-1.933-.399-.491-1.012-.737-1.809-.737-.736 0-1.35.277-1.779.798-.491.522-.705 1.197-.705 1.995zM142.052 8.764v4.02h2.637v3.222h-2.637v5.646c0 .553.123.982.368 1.197.245.246.644.369 1.165.369.491 0 .828-.031 1.074-.123v3.007c-.522.215-1.166.338-1.994.338-1.288 0-2.269-.369-3.036-1.105-.736-.736-1.104-1.75-1.104-3.069v-6.29h-2.361v-3.223h.675c.644 0 1.165-.184 1.502-.583.338-.4.522-.92.522-1.565V8.702M155.477 12.75v3.683c-.368-.062-.705-.123-1.073-.123-1.012 0-1.81.307-2.454.89-.613.583-.92 1.565-.92 2.915v6.169h-3.526V12.78h3.434v1.995c.644-1.412 1.871-2.118 3.711-2.118.184.03.46.062.828.092zM158.783 14.407c1.288-1.35 2.944-2.025 4.906-2.025 1.963 0 3.588.675 4.907 2.025 1.288 1.35 1.963 3.069 1.963 5.125s-.644 3.775-1.963 5.125c-1.288 1.35-2.944 2.025-4.907 2.025-1.962 0-3.587-.675-4.906-2.025-1.288-1.35-1.963-3.069-1.963-5.125.031-2.056.675-3.774 1.963-5.125zm2.576 7.98c.644.674 1.441 1.012 2.361 1.012.92 0 1.687-.338 2.361-1.013.644-.675.982-1.626.982-2.823s-.338-2.148-.982-2.823c-.644-.676-1.441-1.013-2.361-1.013-.92 0-1.717.337-2.361 1.012-.644.676-.981 1.627-.981 2.824 0 1.197.306 2.148.981 2.823zM176.874 6.432h-3.526v19.855h3.526V6.432z"/>
</svg>
