<svg xmlns="http://www.w3.org/2000/svg" width="484" height="336" fill="none" viewBox="0 0 484 336">
    <path fill="#146EB4" fill-opacity=".1" d="M384 336H6c-3.314 0-6-2.686-6-6V6c0-3.314 2.686-6 6-6h378v336z"/>
    <path stroke="#146EB4" stroke-opacity=".5" d="M383.5 335.5H6c-3.038 0-5.5-2.462-5.5-5.5V6C.5 2.962 2.962.5 6 .5h377.5v335z"/>
    <g filter="url(#filter0_d)">
        <rect width="432" height="272" x="32" y="32" fill="#fff" rx="6"/>
    </g>
    <rect width="367" height="49" x="64.5" y="64.5" stroke="#D9D9D9" rx="3.5"/>
    <path fill="#999" d="M83.73 93.703v-4.122h6.84v-1.278h-6.84v-4.086h7.363V82.94h-8.784V95h8.802v-1.296h-7.38zM98.486 85.91c-1.495 0-2.629.611-3.349 1.691v-1.476H93.77V95h1.368v-4.266c0-2.304 1.225-3.564 3.079-3.564 1.476 0 2.466 1.116 2.466 2.772V95h1.368v-5.31c0-2.25-1.422-3.78-3.564-3.78zM109.88 93.397c-.45.324-1.008.54-1.512.54-.99 0-1.638-.648-1.638-1.8v-4.86h3.168v-1.152h-3.168V83.3h-1.386v2.826h-1.926v1.152h1.926v4.95c0 1.962 1.17 3.006 2.934 3.006.72 0 1.332-.198 2.052-.702l-.45-1.134zM119.958 90.337c-.09-2.646-1.962-4.428-4.356-4.428-2.448 0-4.59 1.836-4.59 4.68 0 2.826 2.142 4.644 4.5 4.644 1.998 0 3.546-.972 4.248-2.826l-1.224-.288c-.63 1.422-1.764 1.908-3.024 1.908-1.53 0-3.042-1.188-3.168-3.186h7.614v-.504zm-4.356-3.222c1.494 0 2.718.954 2.97 2.7h-6.174c.27-1.746 1.764-2.7 3.204-2.7zM127.266 86.035c-1.656 0-2.862.972-3.582 2.286v-2.196h-1.368V95h1.368v-3.42c0-2.394 1.224-4.176 3.564-4.176.162 0 .36 0 .522.018l.108-1.314c-.234-.072-.414-.072-.612-.072zM139.148 85.91c-1.476 0-2.736.593-3.528 1.637V82.04h-1.368V95h1.368v-1.404c.792 1.044 2.052 1.638 3.528 1.638 2.358 0 4.428-1.854 4.428-4.662s-2.07-4.662-4.428-4.662zm-.216 8.1c-1.674 0-3.312-1.333-3.312-3.439 0-2.124 1.638-3.456 3.312-3.456 1.836 0 3.312 1.332 3.312 3.456 0 2.106-1.476 3.438-3.312 3.438zM152.637 86.125v4.266c0 2.304-1.224 3.546-3.078 3.546-1.476 0-2.448-1.098-2.448-2.754v-5.058h-1.386v5.31c0 2.25 1.422 3.78 3.564 3.78 1.476 0 2.628-.612 3.348-1.674v1.44h1.386v-8.856h-1.386zM157.645 92.3l-1.368.305c.216 1.728 1.836 2.628 3.87 2.628 2.124 0 3.582-.99 3.582-2.736 0-1.35-.99-2.034-2.286-2.322l-2.142-.468c-.864-.198-1.35-.522-1.35-1.224 0-.846.702-1.458 1.962-1.458 1.314 0 2.16.666 2.34 1.638l1.314-.288c-.324-1.44-1.62-2.466-3.618-2.466-2.034 0-3.366 1.08-3.366 2.682 0 1.224.828 1.962 2.304 2.268l2.034.45c.9.198 1.458.54 1.458 1.278 0 .918-.846 1.512-2.124 1.512-1.404 0-2.484-.63-2.61-1.8zM166.967 82.525c-.54 0-.936.432-.936.918 0 .522.396.918.936.918s.954-.396.954-.918c0-.486-.414-.918-.954-.918zm.702 3.6h-1.386V95h1.386v-8.874zM175.689 85.91c-1.494 0-2.628.611-3.348 1.691v-1.476h-1.368V95h1.368v-4.266c0-2.304 1.224-3.564 3.078-3.564 1.476 0 2.466 1.116 2.466 2.772V95h1.368v-5.31c0-2.25-1.422-3.78-3.564-3.78zM190.341 90.337c-.09-2.646-1.962-4.428-4.356-4.428-2.448 0-4.59 1.836-4.59 4.68 0 2.826 2.142 4.644 4.5 4.644 1.998 0 3.546-.972 4.248-2.826l-1.224-.288c-.63 1.422-1.764 1.908-3.024 1.908-1.53 0-3.042-1.188-3.168-3.186h7.614v-.504zm-4.356-3.222c1.494 0 2.718.954 2.97 2.7h-6.174c.27-1.746 1.764-2.7 3.204-2.7zM193.311 92.3l-1.368.305c.216 1.728 1.836 2.628 3.87 2.628 2.124 0 3.582-.99 3.582-2.736 0-1.35-.99-2.034-2.286-2.322l-2.142-.468c-.864-.198-1.35-.522-1.35-1.224 0-.846.702-1.458 1.962-1.458 1.314 0 2.16.666 2.34 1.638l1.314-.288c-.324-1.44-1.62-2.466-3.618-2.466-2.034 0-3.366 1.08-3.366 2.682 0 1.224.828 1.962 2.304 2.268l2.034.45c.9.198 1.458.54 1.458 1.278 0 .918-.846 1.512-2.124 1.512-1.404 0-2.484-.63-2.61-1.8zM202.241 92.3l-1.368.305c.216 1.728 1.836 2.628 3.87 2.628 2.124 0 3.582-.99 3.582-2.736 0-1.35-.99-2.034-2.286-2.322l-2.142-.468c-.864-.198-1.35-.522-1.35-1.224 0-.846.702-1.458 1.962-1.458 1.314 0 2.16.666 2.34 1.638l1.314-.288c-.324-1.44-1.62-2.466-3.618-2.466-2.034 0-3.366 1.08-3.366 2.682 0 1.224.828 1.962 2.304 2.268l2.034.45c.9.198 1.458.54 1.458 1.278 0 .918-.846 1.512-2.124 1.512-1.404 0-2.484-.63-2.61-1.8zM219.986 85.91c-1.494 0-2.628.611-3.348 1.691v-1.476h-1.368V95h1.368v-4.266c0-2.304 1.224-3.564 3.078-3.564 1.476 0 2.466 1.116 2.466 2.772V95h1.368v-5.31c0-2.25-1.422-3.78-3.564-3.78zM233.648 86.125v1.422c-.792-1.044-2.052-1.638-3.528-1.638-2.358 0-4.428 1.854-4.428 4.662s2.07 4.662 4.428 4.662c1.476 0 2.736-.594 3.528-1.638V95h1.368v-8.874h-1.368zm-3.312 7.884c-1.836 0-3.312-1.332-3.312-3.438 0-2.124 1.476-3.456 3.312-3.456 1.674 0 3.312 1.332 3.312 3.456 0 2.106-1.638 3.438-3.312 3.438zM248.955 85.91c-1.512 0-2.664.701-3.348 1.8-.522-1.135-1.656-1.8-3.024-1.8-1.386 0-2.394.593-3.024 1.565v-1.35h-1.368V95h1.368v-4.536c0-2.088 1.062-3.294 2.7-3.294 1.314 0 2.268.918 2.268 2.322V95h1.368v-4.536c0-2.088 1.08-3.294 2.718-3.294 1.332 0 2.286.918 2.286 2.322V95h1.368v-5.742c0-2.016-1.44-3.348-3.312-3.348zM263.361 90.337c-.09-2.646-1.962-4.428-4.356-4.428-2.448 0-4.59 1.836-4.59 4.68 0 2.826 2.142 4.644 4.5 4.644 1.998 0 3.546-.972 4.248-2.826l-1.224-.288c-.63 1.422-1.764 1.908-3.024 1.908-1.53 0-3.042-1.188-3.168-3.186h7.614v-.504zm-4.356-3.222c1.494 0 2.718.954 2.97 2.7h-6.174c.27-1.746 1.764-2.7 3.204-2.7z"/>
    <rect width="367" height="49" x="64.5" y="138.5" stroke="#D9D9D9" rx="3.5"/>
    <path fill="#999" d="M87.979 167.901c-2.7 0-4.824-2.16-4.824-4.932 0-2.79 2.124-4.932 4.824-4.932 2.088 0 3.762 1.116 4.374 3.06l1.368-.396c-.738-2.43-2.97-3.996-5.742-3.996-3.51 0-6.264 2.754-6.264 6.264 0 3.51 2.754 6.264 6.264 6.264 2.772 0 5.004-1.566 5.742-4.086l-1.368-.324c-.63 1.98-2.286 3.078-4.374 3.078zM101.017 159.909c-1.494 0-2.628.612-3.348 1.692v-5.562h-1.368v12.96h1.368v-4.266c0-2.304 1.224-3.564 3.078-3.564 1.476 0 2.466 1.116 2.466 2.772v5.058h1.368v-5.31c0-2.25-1.422-3.78-3.564-3.78zM111.439 159.927c-2.646 0-4.716 1.908-4.716 4.626 0 2.718 2.07 4.662 4.716 4.662 2.61 0 4.698-1.944 4.698-4.662s-2.088-4.626-4.698-4.626zm0 8.082c-1.836 0-3.384-1.404-3.384-3.456 0-2.034 1.548-3.42 3.384-3.42 1.818 0 3.348 1.386 3.348 3.42 0 2.052-1.53 3.456-3.348 3.456zM122.391 159.927c-2.646 0-4.716 1.908-4.716 4.626 0 2.718 2.07 4.662 4.716 4.662 2.61 0 4.698-1.944 4.698-4.662s-2.088-4.626-4.698-4.626zm0 8.082c-1.836 0-3.384-1.404-3.384-3.456 0-2.034 1.548-3.42 3.384-3.42 1.818 0 3.348 1.386 3.348 3.42 0 2.052-1.53 3.456-3.348 3.456zM130.048 166.299l-1.368.306c.216 1.728 1.836 2.628 3.87 2.628 2.124 0 3.582-.99 3.582-2.736 0-1.35-.99-2.034-2.286-2.322l-2.142-.468c-.864-.198-1.35-.522-1.35-1.224 0-.846.702-1.458 1.962-1.458 1.314 0 2.16.666 2.34 1.638l1.314-.288c-.324-1.44-1.62-2.466-3.618-2.466-2.034 0-3.366 1.08-3.366 2.682 0 1.224.828 1.962 2.304 2.268l2.034.45c.9.198 1.458.54 1.458 1.278 0 .918-.846 1.512-2.124 1.512-1.404 0-2.484-.63-2.61-1.8zM146.677 164.337c-.09-2.646-1.962-4.428-4.356-4.428-2.448 0-4.59 1.836-4.59 4.68 0 2.826 2.142 4.644 4.5 4.644 1.998 0 3.546-.972 4.248-2.826l-1.224-.288c-.63 1.422-1.764 1.908-3.024 1.908-1.53 0-3.042-1.188-3.168-3.186h7.614v-.504zm-4.356-3.222c1.494 0 2.718.954 2.97 2.7h-6.174c.27-1.746 1.764-2.7 3.204-2.7zM158.467 159.909c-1.476 0-2.736.594-3.528 1.638v-5.508h-1.368v12.96h1.368v-1.404c.792 1.044 2.052 1.638 3.528 1.638 2.358 0 4.428-1.854 4.428-4.662s-2.07-4.662-4.428-4.662zm-.216 8.1c-1.674 0-3.312-1.332-3.312-3.438 0-2.124 1.638-3.456 3.312-3.456 1.836 0 3.312 1.332 3.312 3.456 0 2.106-1.476 3.438-3.312 3.438zM171.956 160.125v4.266c0 2.304-1.224 3.546-3.078 3.546-1.476 0-2.448-1.098-2.448-2.754v-5.058h-1.386v5.31c0 2.25 1.422 3.78 3.564 3.78 1.476 0 2.628-.612 3.348-1.674v1.44h1.386v-8.856h-1.386zM176.964 166.299l-1.368.306c.216 1.728 1.836 2.628 3.87 2.628 2.124 0 3.582-.99 3.582-2.736 0-1.35-.99-2.034-2.286-2.322l-2.142-.468c-.864-.198-1.35-.522-1.35-1.224 0-.846.702-1.458 1.962-1.458 1.314 0 2.16.666 2.34 1.638l1.314-.288c-.324-1.44-1.62-2.466-3.618-2.466-2.034 0-3.366 1.08-3.366 2.682 0 1.224.828 1.962 2.304 2.268l2.034.45c.9.198 1.458.54 1.458 1.278 0 .918-.846 1.512-2.124 1.512-1.404 0-2.484-.63-2.61-1.8zM186.285 156.525c-.54 0-.936.432-.936.918 0 .522.396.918.936.918s.954-.396.954-.918c0-.486-.414-.918-.954-.918zm.702 3.6h-1.386v8.874h1.386v-8.874zM195.007 159.909c-1.494 0-2.628.612-3.348 1.692v-1.476h-1.368v8.874h1.368v-4.266c0-2.304 1.224-3.564 3.078-3.564 1.476 0 2.466 1.116 2.466 2.772v5.058h1.368v-5.31c0-2.25-1.422-3.78-3.564-3.78zM209.66 164.337c-.09-2.646-1.962-4.428-4.356-4.428-2.448 0-4.59 1.836-4.59 4.68 0 2.826 2.142 4.644 4.5 4.644 1.998 0 3.546-.972 4.248-2.826l-1.224-.288c-.63 1.422-1.764 1.908-3.024 1.908-1.53 0-3.042-1.188-3.168-3.186h7.614v-.504zm-4.356-3.222c1.494 0 2.718.954 2.97 2.7H202.1c.27-1.746 1.764-2.7 3.204-2.7zM212.63 166.299l-1.368.306c.216 1.728 1.836 2.628 3.87 2.628 2.124 0 3.582-.99 3.582-2.736 0-1.35-.99-2.034-2.286-2.322l-2.142-.468c-.864-.198-1.35-.522-1.35-1.224 0-.846.702-1.458 1.962-1.458 1.314 0 2.16.666 2.34 1.638l1.314-.288c-.324-1.44-1.62-2.466-3.618-2.466-2.034 0-3.366 1.08-3.366 2.682 0 1.224.828 1.962 2.304 2.268l2.034.45c.9.198 1.458.54 1.458 1.278 0 .918-.846 1.512-2.124 1.512-1.404 0-2.484-.63-2.61-1.8zM221.56 166.299l-1.368.306c.216 1.728 1.836 2.628 3.87 2.628 2.124 0 3.582-.99 3.582-2.736 0-1.35-.99-2.034-2.286-2.322l-2.142-.468c-.864-.198-1.35-.522-1.35-1.224 0-.846.702-1.458 1.962-1.458 1.314 0 2.16.666 2.34 1.638l1.314-.288c-.324-1.44-1.62-2.466-3.618-2.466-2.034 0-3.366 1.08-3.366 2.682 0 1.224.828 1.962 2.304 2.268l2.034.45c.9.198 1.458.54 1.458 1.278 0 .918-.846 1.512-2.124 1.512-1.404 0-2.484-.63-2.61-1.8zM238.404 167.955c-1.818 0-3.294-1.314-3.294-3.384 0-2.034 1.476-3.402 3.294-3.402 1.314 0 2.502.72 2.898 2.088l1.314-.396c-.54-1.818-2.268-2.952-4.212-2.952-2.502 0-4.626 1.872-4.626 4.662 0 2.826 2.124 4.662 4.626 4.662 1.962 0 3.708-1.116 4.194-2.934l-1.26-.342c-.432 1.332-1.62 1.998-2.934 1.998zM252.105 160.125v1.422c-.792-1.044-2.052-1.638-3.528-1.638-2.358 0-4.428 1.854-4.428 4.662s2.07 4.662 4.428 4.662c1.476 0 2.736-.594 3.528-1.638v1.404h1.368v-8.874h-1.368zm-3.312 7.884c-1.836 0-3.312-1.332-3.312-3.438 0-2.124 1.476-3.456 3.312-3.456 1.674 0 3.312 1.332 3.312 3.456 0 2.106-1.638 3.438-3.312 3.438zM261.527 167.397c-.45.324-1.008.54-1.512.54-.99 0-1.638-.648-1.638-1.8v-4.86h3.168v-1.152h-3.168v-2.826h-1.386v2.826h-1.926v1.152h1.926v4.95c0 1.962 1.17 3.006 2.934 3.006.72 0 1.332-.198 2.052-.702l-.45-1.134zM271.605 164.337c-.09-2.646-1.962-4.428-4.356-4.428-2.448 0-4.59 1.836-4.59 4.68 0 2.826 2.142 4.644 4.5 4.644 1.998 0 3.546-.972 4.248-2.826l-1.224-.288c-.63 1.422-1.764 1.908-3.024 1.908-1.53 0-3.042-1.188-3.168-3.186h7.614v-.504zm-4.356-3.222c1.494 0 2.718.954 2.97 2.7h-6.174c.27-1.746 1.764-2.7 3.204-2.7zM282.189 160.125h-1.332v1.224c-.72-.918-1.854-1.44-3.33-1.44-2.34 0-4.374 1.764-4.374 4.266 0 2.52 2.034 4.302 4.374 4.302 1.476 0 2.61-.522 3.33-1.458v1.53c0 1.89-1.242 3.078-3.114 3.078-1.656 0-2.556-.666-3.186-1.854l-1.152.792c.684 1.44 2.142 2.304 4.338 2.304 2.682 0 4.446-1.548 4.464-4.14l-.018-8.604zm-4.464 7.164c-1.8 0-3.24-1.224-3.24-3.114s1.44-3.078 3.24-3.078c1.656 0 3.132 1.188 3.132 3.078s-1.476 3.114-3.132 3.114zM289.26 159.927c-2.646 0-4.716 1.908-4.716 4.626 0 2.718 2.07 4.662 4.716 4.662 2.61 0 4.698-1.944 4.698-4.662s-2.088-4.626-4.698-4.626zm0 8.082c-1.836 0-3.384-1.404-3.384-3.456 0-2.034 1.548-3.42 3.384-3.42 1.818 0 3.348 1.386 3.348 3.42 0 2.052-1.53 3.456-3.348 3.456zM301.255 160.035c-1.656 0-2.862.972-3.582 2.286v-2.196h-1.368v8.874h1.368v-3.42c0-2.394 1.224-4.176 3.564-4.176.162 0 .36 0 .522.018l.108-1.314c-.234-.072-.414-.072-.612-.072zM310.401 160.125l-3.24 7.092-3.168-7.092h-1.548l3.978 8.748-1.71 3.726h1.53l5.688-12.474h-1.53z"/>
    <rect width="368" height="50" x="64" y="222" fill="#146EB4" rx="4"/>
    <path fill="#fff" d="M184.145 249.746c-2.43 0-4.338-1.926-4.338-4.464 0-2.538 1.908-4.464 4.338-4.464 1.89 0 3.438 1.008 3.978 3.042l1.872-.54c-.684-2.664-3.006-4.32-5.85-4.32-3.51 0-6.282 2.772-6.282 6.282 0 3.528 2.772 6.282 6.282 6.282 2.844 0 5.184-1.638 5.85-4.464l-1.872-.396c-.54 2.034-2.088 3.042-3.978 3.042zM197.547 242.276c-1.548 0-2.682.828-3.402 2.016v-1.908h-1.872v8.928h1.872v-3.15c0-2.448 1.116-4.032 3.384-4.032.162 0 .378 0 .522.018l.126-1.8c-.234-.072-.414-.072-.63-.072zM207.989 246.65c-.09-2.682-2.07-4.518-4.464-4.518-2.52 0-4.626 1.89-4.626 4.734 0 2.826 2.124 4.698 4.554 4.698 1.98 0 3.564-.936 4.302-2.808l-1.674-.36c-.63 1.26-1.638 1.548-2.628 1.548-1.314 0-2.52-.99-2.7-2.646h7.236v-.648zm-4.464-2.862c1.224 0 2.268.72 2.556 2.178h-5.274c.288-1.44 1.566-2.178 2.718-2.178zM216.956 242.384v1.026c-.792-.81-1.89-1.278-3.24-1.278-2.322 0-4.428 1.908-4.428 4.716 0 2.826 2.106 4.716 4.428 4.716 1.35 0 2.448-.468 3.24-1.26v1.008h1.89v-8.928h-1.89zm-2.934 7.524c-1.62 0-2.898-1.17-2.898-3.06 0-1.872 1.278-3.06 2.898-3.06 1.494 0 2.934 1.188 2.934 3.06 0 1.89-1.44 3.06-2.934 3.06zM227.027 249.314c-.468.306-1.044.486-1.512.486-.882 0-1.476-.54-1.476-1.656v-4.212h3.06v-1.548h-3.06v-2.772h-1.872v2.772h-1.926v1.548h1.926v4.338c0 2.214 1.296 3.294 3.222 3.294.756 0 1.368-.18 2.214-.684l-.576-1.566zM237.204 246.65c-.09-2.682-2.07-4.518-4.464-4.518-2.52 0-4.626 1.89-4.626 4.734 0 2.826 2.124 4.698 4.554 4.698 1.98 0 3.564-.936 4.302-2.808l-1.674-.36c-.63 1.26-1.638 1.548-2.628 1.548-1.314 0-2.52-.99-2.7-2.646h7.236v-.648zm-4.464-2.862c1.224 0 2.268.72 2.556 2.178h-5.274c.288-1.44 1.566-2.178 2.718-2.178zM254.758 242.132c-1.476 0-2.61.63-3.33 1.638-.576-1.044-1.692-1.638-2.97-1.638-1.278 0-2.214.468-2.862 1.26v-1.008h-1.872v8.928h1.872v-4.428c0-1.998.936-3.024 2.376-3.024 1.152 0 2.016.828 2.016 2.142v5.31h1.872v-4.428c0-1.998.954-3.024 2.412-3.024 1.152 0 2.016.828 2.016 2.142v5.31h1.854v-5.688c0-2.106-1.53-3.492-3.384-3.492zM267.028 242.366l-2.862 6.444-2.79-6.444h-2.088l3.852 8.748-1.692 3.798h2.088l5.58-12.546h-2.088zM276.34 248.522l-1.872.396c.234 1.8 1.944 2.646 3.942 2.646 2.232 0 3.762-1.008 3.762-2.88 0-1.26-.882-2.106-2.322-2.412l-2.124-.468c-.792-.18-1.08-.504-1.08-1.008 0-.63.486-1.17 1.584-1.17 1.152 0 1.89.594 2.034 1.458l1.782-.378c-.324-1.494-1.71-2.574-3.762-2.574-2.142 0-3.528 1.17-3.528 2.826 0 1.26.882 2.088 2.43 2.43l1.944.396c.828.18 1.206.522 1.206 1.062 0 .702-.684 1.188-1.764 1.188-1.17 0-2.106-.45-2.232-1.512zM289.658 249.314c-.468.306-1.044.486-1.512.486-.882 0-1.476-.54-1.476-1.656v-4.212h3.06v-1.548h-3.06v-2.772h-1.872v2.772h-1.926v1.548h1.926v4.338c0 2.214 1.296 3.294 3.222 3.294.756 0 1.368-.18 2.214-.684l-.576-1.566zM295.551 242.186c-2.646 0-4.806 1.89-4.806 4.662 0 2.772 2.16 4.68 4.806 4.68 2.628 0 4.77-1.908 4.77-4.68s-2.142-4.662-4.77-4.662zm0 7.722c-1.566 0-2.97-1.206-2.97-3.06s1.404-3.06 2.97-3.06c1.53 0 2.952 1.206 2.952 3.06s-1.422 3.06-2.952 3.06zM307.691 242.276c-1.548 0-2.682.828-3.402 2.016v-1.908h-1.872v8.928h1.872v-3.15c0-2.448 1.116-4.032 3.384-4.032.162 0 .378 0 .522.018l.126-1.8c-.234-.072-.414-.072-.63-.072zM318.134 246.65c-.09-2.682-2.07-4.518-4.464-4.518-2.52 0-4.626 1.89-4.626 4.734 0 2.826 2.124 4.698 4.554 4.698 1.98 0 3.564-.936 4.302-2.808l-1.674-.36c-.63 1.26-1.638 1.548-2.628 1.548-1.314 0-2.52-.99-2.7-2.646h7.236v-.648zm-4.464-2.862c1.224 0 2.268.72 2.556 2.178h-5.274c.288-1.44 1.566-2.178 2.718-2.178z"/>
    <defs>
        <filter id="filter0_d" width="472" height="312" x="12" y="16" color-interpolation-filters="sRGB" filterUnits="userSpaceOnUse">
            <feFlood flood-opacity="0" result="BackgroundImageFix"/>
            <feColorMatrix in="SourceAlpha" values="0 0 0 0 0 0 0 0 0 0 0 0 0 0 0 0 0 0 127 0"/>
            <feOffset dy="4"/>
            <feGaussianBlur stdDeviation="10"/>
            <feColorMatrix values="0 0 0 0 0.596078 0 0 0 0 0.596078 0 0 0 0 0.596078 0 0 0 0.2 0"/>
            <feBlend in2="BackgroundImageFix" result="effect1_dropShadow"/>
            <feBlend in="SourceGraphic" in2="effect1_dropShadow" result="shape"/>
        </filter>
    </defs>
</svg>
