
<svg xmlns="http://www.w3.org/2000/svg" width="121" height="26" fill="none" viewBox="0 0 121 26">
    <path fill="#B3B3B3" fill-rule="evenodd" d="M4.829 25.248v-8.122L0 .843h3.99l2.884 11.084h.11L9.867.843h3.652L8.65 17.126v8.062l-3.821.06zm13.13-18.793v13.18c0 1.744.758 2.409 1.995 2.409s1.995-.665 1.995-2.409V6.456c0-1.743-.768-2.408-1.995-2.408s-1.996.665-1.996 2.408zm-3.782 12.939V6.697c0-3.9 2.046-6.136 5.797-6.136s5.806 2.237 5.806 6.136v12.697c0 3.9-2.055 6.136-5.806 6.136-3.752 0-5.797-2.237-5.797-6.136zM28.065.843h3.861v18.823c0 1.743.768 2.378 1.996 2.378 1.227 0 1.995-.635 1.995-2.378V.843h3.621v18.58c0 3.91-1.995 6.138-5.696 6.138-3.702 0-5.707-2.227-5.707-6.137L28.065.843zm25.94 24.405h-3.891c-.322-.972-.44-2.002-.35-3.023v-3.829c0-2.267-.767-3.104-2.503-3.104h-1.367v9.936h-3.821V.843h5.816c3.99 0 5.657 1.844 5.657 5.612V8.37c0 2.509-.798 4.121-2.494 4.917v.07c1.906.807 2.534 2.62 2.534 5.16v3.769c-.088 1.002.038 2.013.37 2.962h.049zM47.729 4.33h-1.835v7.497h1.486c1.427 0 2.295-.625 2.295-2.58V6.839c0-1.743-.589-2.509-1.945-2.509zm7.822 2.368c0-3.9 1.906-6.136 5.627-6.136 3.722 0 5.667 2.237 5.667 6.136v.766h-3.651V6.455c0-1.743-.699-2.408-1.916-2.408s-1.905.665-1.905 2.408c0 1.744.758 3.104 3.262 5.3 3.213 2.822 4.21 4.847 4.21 7.639 0 3.9-1.945 6.136-5.697 6.136-3.75 0-5.696-2.237-5.696-6.136v-1.502h3.611v1.744c0 1.743.768 2.367 1.996 2.367 1.227 0 1.995-.624 1.995-2.367 0-1.744-.758-3.104-3.262-5.3-3.233-2.822-4.24-4.848-4.24-7.639zM67.913 4.33V.843h11.813v3.486h-3.991v20.92h-3.821V4.328h-4.001zm16.96 2.126v13.18c0 1.744.769 2.409 1.996 2.409 1.227 0 1.995-.665 1.995-2.409V6.456c0-1.743-.768-2.408-1.995-2.408s-1.966.665-1.966 2.408h-.03zm-3.79 12.939V6.697c0-3.9 1.995-6.136 5.806-6.136s5.797 2.237 5.797 6.136v12.697c0 3.9-2.046 6.136-5.797 6.136s-5.807-2.237-5.807-6.136zm25.939 5.854h-3.891c-.322-.972-.441-2.002-.349-3.023v-3.829c0-2.267-.758-3.104-2.494-3.104h-1.317v9.936H95.15V.843h5.766c3.991 0 5.667 1.844 5.667 5.612V8.37c0 2.509-.798 4.121-2.504 4.917v.07c1.916.807 2.534 2.62 2.534 5.16v3.769c-.067 1.006.076 2.015.419 2.962h-.01zM100.817 4.33h-1.846v7.497h1.497c1.426 0 2.294-.625 2.294-2.58V6.839c0-1.743-.588-2.509-1.945-2.509zm11.533 20.92v-8.123L107.521.812h3.991l2.883 11.085h.07L117.348.812H121l-4.829 16.314v8.062l-3.821.06z" clip-rule="evenodd"/>
</svg>
